#!OML:ASF F:\VICON\USERDATA\INSTALL\rory3\rory3.ASF
:FULLY-SPECIFIED
:DEGREES
267
root -0.913129 22.0554 8.52157 -170.059 1.33367 -179.626
lowerback 9.42616 -0.565441 -7.02842
upperback 1.09724 -1.33241 1.17409
thorax -3.95065 -0.504689 5.36126
lowerneck -16.2513 -0.255337 -6.7908
upperneck 38.6842 6.90018 -0.354957
head 16.5671 3.12054 2.70904
rclavicle 1.799e-014 3.57812e-015
rhumerus -32.7818 -5.95306 -78.7784
rradius 47.0301
rwrist 16.0547
rhand -21.9651 3.53434
rfingers 7.12502
rthumb 4.44245 -26.3991
lclavicle 1.799e-014 3.57812e-015
lhumerus -28.3944 8.02521 77.429
lradius 36.8442
lwrist -2.4414
lhand -15.099 26.295
lfingers 7.12502
lthumb 11.0692 55.9831
rfemur -65.822 -10.2366 25.5505
rtibia 98.6133
rfoot -14.6402 4.27776
rtoes -4.07276
lfemur -13.4195 4.03658 -25.7504
ltibia 16.492
lfoot -0.784904 -5.55691
ltoes -15.0989
268
root -0.907396 22.0974 8.47872 -170.043 1.1889 -179.666
lowerback 9.38774 -0.635488 -7.16434
upperback 1.05017 -1.44195 1.15148
thorax -3.96026 -0.556454 5.4275
lowerneck -16.2029 -0.255429 -6.64275
upperneck 38.7173 6.8728 -0.394296
head 16.5798 3.12821 2.66215
rclavicle 5.76476e-015 -4.37326e-015
rhumerus -33.067 -6.06121 -78.6567
rradius 47.0843
rwrist 16.0719
rhand -21.9132 3.1197
rfingers 7.12502
rthumb 4.49255 -26.8127
lclavicle 5.76476e-015 -4.37326e-015
lhumerus -28.2377 7.7514 77.3353
lradius 37.0592
lwrist -2.36829
lhand -15.0785 26.3546
lfingers 7.12502
lthumb 11.089 56.0417
rfemur -66.4202 -10.0734 25.7836
rtibia 98.1115
rfoot -14.563 4.59064
rtoes -4.7684
lfemur -12.6107 3.97081 -25.7225
ltibia 15.0708
lfoot 0.311475 -5.60874
ltoes -14.7892
269
root -0.902408 22.1375 8.43377 -170.124 1.03271 -179.749
lowerback 9.38212 -0.699183 -7.31452
upperback 1.08124 -1.5399 1.10966
thorax -3.90711 -0.605005 5.47934
lowerneck -16.1996 -0.243447 -6.61744
upperneck 38.7019 6.79998 -0.251821
head 16.5625 3.11855 2.70455
rclavicle -1.93815e-014 -1.23246e-014
rhumerus -33.2558 -6.20068 -78.546
rradius 47.1259
rwrist 15.9789
rhand -21.9078 2.97691
rfingers 7.12502
rthumb 4.49783 -26.9553
lclavicle -1.93815e-014 -1.23246e-014
lhumerus -27.9648 7.51054 77.2741
lradius 37.2456
lwrist -2.15161
lhand -15.1144 26.4102
lfingers 7.12502
lthumb 11.0544 56.0991
rfemur -66.8038 -9.93649 25.9333
rtibia 97.4994
rfoot -14.605 5.08098
rtoes -5.97212
lfemur -11.7236 3.98122 -25.7448
ltibia 13.7192
lfoot 1.37237 -5.75637
ltoes -15.011
270
root -0.896295 22.1733 8.38745 -170.16 0.861836 -179.828
lowerback 9.31558 -0.779767 -7.48318
upperback 1.06572 -1.66136 1.09403
thorax -3.86394 -0.664615 5.5711
lowerneck -16.0626 -0.211957 -6.51781
upperneck 38.6278 6.80467 -0.297349
head 16.4938 3.13484 2.65974
rclavicle 4.57205e-015 -5.56597e-015
rhumerus -33.4932 -6.36648 -78.3897
rradius 47.1231
rwrist 15.9586
rhand -21.7843 3.16843
rfingers 7.12502
rthumb 4.61708 -26.7613
lclavicle 4.57205e-015 -5.56597e-015
lhumerus -27.8326 7.35973 77.214
lradius 37.4751
lwrist -1.94519
lhand -15.2358 26.4365
lfingers 7.12502
lthumb 10.9373 56.1317
rfemur -67.1608 -9.73429 26.055
rtibia 96.7686
rfoot -14.5089 5.76404
rtoes -6.59051
lfemur -10.9002 4.01165 -25.7781
ltibia 12.4202
lfoot 2.22891 -6.03657
ltoes -16.0588
271
root -0.8897 22.204 8.34216 -170.102 0.737461 -179.87
lowerback 9.20139 -0.855371 -7.6655
upperback 1.01088 -1.77616 1.12642
thorax -3.83411 -0.72015 5.7198
lowerneck -15.9953 -0.17815 -6.48861
upperneck 38.6011 6.87519 -0.376972
head 16.4669 3.16147 2.62937
rclavicle -8.24956e-015 3.97569e-016
rhumerus -33.6965 -6.49285 -78.1541
rradius 47.0329
rwrist 16.0478
rhand -21.5408 3.33056
rfingers 7.12502
rthumb 4.85217 -26.5939
lclavicle -8.24956e-015 3.97569e-016
lhumerus -27.759 7.27086 77.2151
lradius 37.7304
lwrist -1.81016
lhand -15.3692 26.2557
lfingers 7.12502
lthumb 10.8087 55.9576
rfemur -67.6017 -9.46064 26.2264
rtibia 95.8989
rfoot -14.2101 6.52379
rtoes -6.859
lfemur -10.18 4.0252 -25.7757
ltibia 11.1283
lfoot 3.12028 -6.19293
ltoes -16.4871
272
root -0.882834 22.2308 8.29807 -170.041 0.655696 -179.946
lowerback 9.10638 -0.911863 -7.88653
upperback 0.973341 -1.86864 1.15966
thorax -3.79812 -0.764246 5.88884
lowerneck -16.0456 -0.189463 -6.55848
upperneck 38.636 6.89806 -0.39069
head 16.4969 3.15627 2.6431
rclavicle -1.6201e-014 -3.57812e-015
rhumerus -33.8923 -6.53228 -77.9131
rradius 47.0172
rwrist 16.0926
rhand -21.3899 3.27077
rfingers 7.12502
rthumb 4.99784 -26.6503
lclavicle -1.6201e-014 -3.57812e-015
lhumerus -27.7841 7.26411 77.2675
lradius 38.1726
lwrist -1.62162
lhand -15.4274 26.2838
lfingers 7.12502
lthumb 10.7525 55.9886
rfemur -67.9957 -9.17188 26.3471
rtibia 94.9006
rfoot -13.8011 7.39007
rtoes -6.76846
lfemur -9.47794 3.95801 -25.7908
ltibia 9.83002
lfoot 4.03585 -6.22232
ltoes -16.5015
273
root -0.877289 22.2596 8.25225 -170.024 0.4174 -179.963
lowerback 8.98404 -1.01178 -7.96873
upperback 0.970972 -2.00037 1.16889
thorax -3.70813 -0.833024 5.95558
lowerneck -15.9467 -0.200647 -6.57793
upperneck 38.6066 6.84093 -0.3227
head 16.4533 3.14293 2.66073
rclavicle 2.47487e-014 9.14409e-015
rhumerus -34.1116 -6.58291 -77.7636
rradius 47.0491
rwrist 16.0332
rhand -21.4404 3.10649
rfingers 7.12502
rthumb 4.94908 -26.8157
lclavicle 2.47487e-014 9.14409e-015
lhumerus -27.7479 7.19157 77.2463
lradius 38.5816
lwrist -1.44947
lhand -15.3078 26.519
lfingers 7.12502
lthumb 10.8679 56.2177
rfemur -68.215 -9.00507 26.5072
rtibia 93.7978
rfoot -13.4451 8.23308
rtoes -7.23986
lfemur -8.78078 3.755 -25.7009
ltibia 8.64184
lfoot 4.98061 -6.22722
ltoes -16.3253
274
root -0.8712 22.2853 8.20618 -170.074 0.122163 -179.921
lowerback 8.96384 -1.11888 -7.98064
upperback 0.951673 -2.14393 1.17572
thorax -3.69346 -0.904692 5.98485
lowerneck -15.8205 -0.19548 -6.39444
upperneck 38.5857 6.81051 -0.40054
head 16.4216 3.15324 2.58532
rclavicle 1.71949e-014 -8.74653e-015
rhumerus -34.3839 -6.64609 -77.6803
rradius 47.1221
rwrist 15.9407
rhand -21.4517 3.19342
rfingers 7.12502
rthumb 4.93819 -26.729
lclavicle 1.71949e-014 -8.74653e-015
lhumerus -27.5658 7.15319 77.1573
lradius 38.7135
lwrist -1.42666
lhand -15.2426 26.4005
lfingers 7.12502
lthumb 10.9308 56.096
rfemur -68.2562 -8.87414 26.7229
rtibia 92.6905
rfoot -13.1662 8.93189
rtoes -7.57419
lfemur -8.08846 3.51173 -25.5237
ltibia 7.6542
lfoot 5.85356 -6.19576
ltoes -16.188
275
root -0.865921 22.3065 8.1627 -170.121 -0.138334 -179.818
lowerback 9.04014 -1.10368 -7.95045
upperback 0.895874 -2.29327 1.24271
thorax -3.77903 -1.04291 6.06493
lowerneck -15.7934 -0.212428 -6.3644
upperneck 38.6255 6.81105 -0.449702
head 16.4406 3.15446 2.56111
rclavicle -2.27608e-014 1.74931e-014
rhumerus -34.67 -6.69499 -77.5008
rradius 47.1898
rwrist 15.9502
rhand -21.4043 3.32041
rfingers 7.12502
rthumb 4.984 -26.601
lclavicle -2.27608e-014 1.74931e-014
lhumerus -27.4134 7.09015 77.1605
lradius 38.8585
lwrist -1.26279
lhand -15.2783 26.362
lfingers 7.12502
lthumb 10.8963 56.0593
rfemur -68.2353 -8.73763 27.0406
rtibia 91.5986
rfoot -13.095 9.47674
rtoes -8.54754
lfemur -7.5006 3.31203 -25.2997
ltibia 6.83743
lfoot 6.39586 -6.32709
ltoes -16.9897
276
root -0.861705 22.3233 8.12092 -170.142 -0.382567 -179.778
lowerback 9.08682 -1.1794 -7.96815
upperback 0.85633 -2.39642 1.30142
thorax -3.82671 -1.08895 6.15159
lowerneck -15.7517 -0.23964 -6.50521
upperneck 38.6361 6.78317 -0.361961
head 16.428 3.13761 2.61818
rclavicle -1.30204e-014 -1.11319e-014
rhumerus -34.8875 -6.74741 -77.264
rradius 47.1348
rwrist 16.0448
rhand -21.4691 3.24854
rfingers 7.12502
rthumb 4.92139 -26.6743
lclavicle -1.30204e-014 -1.11319e-014
lhumerus -27.2441 7.00374 77.2433
lradius 39.0143
lwrist -1.11225
lhand -15.1987 26.4225
lfingers 7.12502
lthumb 10.9731 56.1157
rfemur -68.1771 -8.60333 27.2593
rtibia 90.5299
rfoot -13.0156 10.1735
rtoes -8.5164
lfemur -7.07773 3.11019 -25.1718
ltibia 6.24295
lfoot 6.77418 -6.45832
ltoes -17.6479
277
root -0.858395 22.332 8.07484 -170.141 -0.587328 -179.758
lowerback 9.00195 -1.22416 -7.9758
upperback 0.834236 -2.44624 1.33633
thorax -3.79233 -1.11319 6.19521
lowerneck -15.7382 -0.307507 -6.61567
upperneck 38.7458 6.69891 -0.225746
head 16.4747 3.10966 2.68849
rclavicle 8.05078e-015 1.86858e-014
rhumerus -35.1071 -6.91079 -77.0157
rradius 47.0732
rwrist 16.0624
rhand -21.374 3.14317
rfingers 7.12502
rthumb 5.0132 -26.7775
lclavicle 8.05078e-015 1.86858e-014
lhumerus -27.0653 6.83035 77.356
lradius 39.1454
lwrist -0.929055
lhand -15.3748 26.3876
lfingers 7.12502
lthumb 10.8032 56.0897
rfemur -68.1343 -8.46541 27.4529
rtibia 89.528
rfoot -12.98 10.5847
rtoes -8.67452
lfemur -6.79437 2.93872 -25.0916
ltibia 5.96217
lfoot 7.06106 -6.43826
ltoes -17.4916
278
root -0.851495 22.3396 8.02609 -170.165 -0.721464 -179.717
lowerback 8.91343 -1.25039 -8.02409
upperback 0.822018 -2.47597 1.36072
thorax -3.74758 -1.12802 6.24808
lowerneck -15.6716 -0.337665 -6.60995
upperneck 38.7842 6.63011 -0.147604
head 16.476 3.09812 2.71016
rclavicle 1.64991e-014 -3.57812e-015
rhumerus -35.2807 -7.00595 -76.8392
rradius 47.0336
rwrist 15.9928
rhand -21.1265 2.97715
rfingers 7.12502
rthumb 5.25218 -26.9378
lclavicle 1.64991e-014 -3.57812e-015
lhumerus -26.9128 6.76922 77.386
lradius 39.2621
lwrist -0.942806
lhand -15.4217 26.3128
lfingers 7.12502
lthumb 10.758 56.0173
rfemur -68.0394 -8.24402 27.6925
rtibia 88.5341
rfoot -12.977 10.5613
rtoes -9.41305
lfemur -6.53927 2.8447 -24.9853
ltibia 5.86098
lfoot 7.18536 -6.40312
ltoes -17.1944
